<mxfile host="app.diagrams.net" modified="2024-07-18T03:30:27.001Z" agent="Mozilla/5.0 (Macintosh; Intel Mac OS X 10_15_7) AppleWebKit/537.36 (KHTML, like Gecko) Chrome/126.0.0.0 Safari/537.36" version="24.2.5" etag="bLH6liq-YABotpu63AQ9" type="github">
  <diagram name="Page-1" id="5Zz0naQQv3PxuNDCurSj">
    <mxGraphModel>
      <root>
        <mxCell id="0" />
        <mxCell id="1" parent="0" />
      </root>
    </mxGraphModel>
  </diagram>
</mxfile>
